<svg width="23.999999999999996" height="23.999999999999996" xmlns="http://www.w3.org/2000/svg">

 <g>
  <title>background</title>
  <rect fill="none" id="canvas_background" height="26" width="26" y="-1" x="-1"/>
 </g>
 <g>
  <title>Layer 1</title>
  <path stroke="null" id="svg_1" d="m12.005988,0.261283c-6.63026,0 -12.005988,5.375728 -12.005988,12.005988c0,5.30538 3.439715,9.804694 8.210876,11.3919c0.600159,0.10993 0.819268,-0.260872 0.819268,-0.577436c0,-0.285799 -0.010998,-1.232537 -0.01686,-2.23499c-3.338579,0.725448 -4.044259,-1.415745 -4.044259,-1.415745c-0.546648,-1.386434 -1.332946,-1.755758 -1.332946,-1.755758c-1.091114,-0.744512 0.082776,-0.729856 0.082776,-0.729856c1.205429,0.083526 1.840058,1.236945 1.840058,1.236945c1.071347,1.834899 2.810972,1.304361 3.49393,0.996591c0.109133,-0.773823 0.419834,-1.304361 0.762099,-1.603339c-2.665142,-0.303362 -5.468774,-1.333673 -5.468774,-5.934123c0,-1.311701 0.468257,-2.381547 1.234741,-3.22206c-0.122381,-0.30484 -0.535673,-1.526402 0.1187,-3.17882c0,0 1.006862,-0.322426 3.301928,1.231083c0.957009,-0.267462 1.983661,-0.399363 3.004428,-0.403772c1.02004,0.004408 2.047396,0.137764 3.005905,0.405226c2.290705,-1.554963 3.29902,-1.231083 3.29902,-1.231083c0.656577,1.653895 0.243285,2.87398 0.120177,3.177366c0.769415,0.840513 1.234014,1.910382 1.234014,3.22206c0,4.612175 -2.808041,5.627807 -5.482703,5.92533c0.432356,0.372256 0.81486,1.102112 0.81486,2.221811c0,1.604816 -0.016133,2.898907 -0.016133,3.294612c0,0.319495 0.218359,0.693205 0.826584,0.575959c4.767526,-1.590137 8.204287,-6.089451 8.204287,-11.3919c0,-6.63026 -5.375728,-12.005988 -12.005988,-12.005988z"/>
 </g>
</svg>